<svg data-v-423bf9ae="" xmlns="http://www.w3.org/2000/svg" viewBox="0 0 344.0674869394898 60" class="font"><!----><!----><!----><g data-v-423bf9ae="" id="d85cbbf7-5738-4278-abc3-e36c8cd8aa5f" fill="black" transform="matrix(5.32859669452762,0,0,5.32859669452762,-4.5293082401018125,-13.85435042076007)"><path d="M5.24 4.83L5.81 5.67L1.90 8.57L5.26 11.42L4.54 12.28L0.85 9.04L0.94 8.08L5.24 4.83ZM10.36 3.88L10.36 3.88L10.36 3.88Q11.58 3.88 12.19 4.50L12.19 4.50L12.19 4.50Q12.81 5.12 12.82 6.17L12.82 6.17L11.84 6.17L11.84 6.17Q11.82 5.56 11.42 5.22L11.42 5.22L11.42 5.22Q11.02 4.89 10.24 4.89L10.24 4.89L10.24 4.89Q9.46 4.89 9.00 5.27L9.00 5.27L9.00 5.27Q8.54 5.66 8.49 6.20L8.49 6.20L8.49 6.20Q8.44 6.73 8.68 7.01L8.68 7.01L8.68 7.01Q8.92 7.29 9.49 7.50L9.49 7.50L11.07 8.13L11.07 8.13Q11.90 8.46 12.34 9.02L12.34 9.02L12.34 9.02Q12.78 9.58 12.70 10.50L12.70 10.50L12.70 10.50Q12.61 11.58 11.77 12.28L11.77 12.28L11.77 12.28Q10.91 12.99 9.51 12.99L9.51 12.99L9.51 12.99Q8.27 12.99 7.53 12.28L7.53 12.28L7.53 12.28Q6.75 11.52 6.83 10.19L6.83 10.19L7.80 10.19L7.80 10.19Q7.71 11.07 8.26 11.55L8.26 11.55L8.26 11.55Q8.75 11.98 9.60 11.98L9.60 11.98L9.60 11.98Q10.46 11.98 11.00 11.56L11.00 11.56L11.00 11.56Q11.55 11.13 11.61 10.55L11.61 10.55L11.61 10.55Q11.66 9.97 11.39 9.63L11.39 9.63L11.39 9.63Q11.12 9.30 10.53 9.07L10.53 9.07L9.18 8.50L9.18 8.50Q8.23 8.13 7.78 7.63L7.78 7.63L7.78 7.63Q7.32 7.13 7.41 6.20L7.41 6.20L7.41 6.20Q7.59 4.58 9.17 4.05L9.17 4.05L9.17 4.05Q9.70 3.88 10.36 3.88ZM14.01 12.84L14.08 11.94L18.09 7.04L14.55 7.04L14.64 6.15L19.31 6.15L19.21 7.04L15.26 11.94L18.75 11.94L18.68 12.84L14.01 12.84ZM22.74 12.10L22.74 12.10L22.74 12.10Q23.97 12.10 24.28 10.88L24.28 10.88L25.30 10.88L25.30 10.88Q25.06 11.89 24.35 12.44L24.35 12.44L24.35 12.44Q23.63 12.99 22.65 12.99L22.65 12.99L22.65 12.99Q21.45 12.99 20.79 12.05L20.79 12.05L20.79 12.05Q20.09 11.07 20.26 9.51L20.26 9.51L20.26 9.51Q20.43 7.88 21.28 6.93L21.28 6.93L21.28 6.93Q22.12 5.98 23.31 5.98L23.31 5.98L23.31 5.98Q24.64 5.98 25.19 7.11L25.19 7.11L25.19 7.11Q25.69 8.13 25.35 9.73L25.35 9.73L21.22 9.73L21.22 9.73Q21.08 11.37 22.01 11.91L22.01 11.91L22.01 11.91Q22.30 12.10 22.74 12.10ZM23.94 7.03L23.94 7.03L23.94 7.03Q23.66 6.86 23.25 6.86L23.25 6.86L23.25 6.86Q22.85 6.86 22.53 7.02L22.53 7.02L22.53 7.02Q22.20 7.18 21.95 7.46L21.95 7.46L21.95 7.46Q21.46 8.02 21.32 8.89L21.32 8.89L24.54 8.89L24.54 8.89Q24.70 7.49 23.94 7.03ZM28.97 3.30L28.59 7.15L28.59 7.15Q29.30 5.98 30.55 5.98L30.55 5.98L30.55 5.98Q31.53 5.98 32.19 6.79L32.19 6.79L32.19 6.79Q32.87 7.62 32.87 8.97L32.87 8.97L32.87 8.97Q32.87 10.46 32.12 11.63L32.12 11.63L32.12 11.63Q31.74 12.22 31.16 12.61L31.16 12.61L31.16 12.61Q30.59 12.99 29.90 12.99L29.90 12.99L29.90 12.99Q28.52 12.99 28.10 11.66L28.10 11.66L27.76 12.84L27.08 12.84L27.97 3.30L28.97 3.30ZM28.41 9.04L28.32 9.98L28.32 9.98Q28.24 10.91 28.71 11.49L28.71 11.49L28.71 11.49Q29.13 12.01 29.74 12.01L29.74 12.01L29.74 12.01Q30.34 12.01 30.72 11.73L30.72 11.73L30.72 11.73Q31.11 11.44 31.36 10.99L31.36 10.99L31.36 10.99Q31.85 10.14 31.85 9.09L31.85 9.09L31.85 9.09Q31.85 8.05 31.40 7.50L31.40 7.50L31.40 7.50Q30.95 6.96 30.27 6.96L30.27 6.96L30.27 6.96Q29.58 6.96 29.05 7.49L29.05 7.49L29.05 7.49Q28.49 8.08 28.41 9.04L28.41 9.04ZM35.25 4.03L37.59 4.03L37.59 4.03Q39.38 4.03 40.35 5.24L40.35 5.24L40.35 5.24Q41.31 6.44 41.12 8.43L41.12 8.43L41.12 8.43Q40.92 10.43 39.75 11.63L39.75 11.63L39.75 11.63Q38.56 12.84 36.75 12.84L36.75 12.84L34.43 12.84L35.25 4.03ZM36.15 5.01L35.50 11.87L36.85 11.87L36.85 11.87Q38.15 11.87 39.05 10.89L39.05 10.89L39.05 10.89Q39.91 9.94 40.05 8.43L40.05 8.43L40.05 8.43Q40.19 6.92 39.51 5.98L39.51 5.98L39.51 5.98Q38.79 5.01 37.49 5.01L37.49 5.01L36.15 5.01ZM44.91 12.10L44.91 12.10L44.91 12.10Q46.14 12.10 46.45 10.88L46.45 10.88L47.47 10.88L47.47 10.88Q47.24 11.89 46.52 12.44L46.52 12.44L46.52 12.44Q45.81 12.99 44.83 12.99L44.83 12.99L44.83 12.99Q43.62 12.99 42.97 12.05L42.97 12.05L42.97 12.05Q42.27 11.07 42.43 9.51L42.43 9.51L42.43 9.51Q42.60 7.88 43.46 6.93L43.46 6.93L43.46 6.93Q44.30 5.98 45.49 5.98L45.49 5.98L45.49 5.98Q46.82 5.98 47.36 7.11L47.36 7.11L47.36 7.11Q47.87 8.13 47.53 9.73L47.53 9.73L43.40 9.73L43.40 9.73Q43.26 11.37 44.18 11.91L44.18 11.91L44.18 11.91Q44.48 12.10 44.91 12.10ZM46.12 7.03L46.12 7.03L46.12 7.03Q45.84 6.86 45.43 6.86L45.43 6.86L45.43 6.86Q45.02 6.86 44.70 7.02L44.70 7.02L44.70 7.02Q44.38 7.18 44.13 7.46L44.13 7.46L44.13 7.46Q43.64 8.02 43.50 8.89L43.50 8.89L46.72 8.89L46.72 8.89Q46.87 7.49 46.12 7.03ZM48.83 6.15L49.95 6.15L51.25 11.68L53.59 6.15L54.71 6.15L51.69 12.84L50.60 12.84L48.83 6.15ZM54.94 13.86L59.16 2.60L60.17 2.60L55.93 13.86L54.94 13.86ZM61.03 5.67L61.75 4.83L65.42 8.08L65.34 9.04L61.05 12.28L60.48 11.42L64.36 8.57L61.03 5.67Z"></path></g><!----><!----></svg>